<?xml version="1.0" encoding="UTF-8" standalone="no"?>
<!-- Created with Inkscape (http://www.inkscape.org/) -->

<svg
   version="1.1"
   id="svg1"
   width="50"
   height="50"
   viewBox="0 0 50 50"
   sodipodi:docname="deng3.svg"
   xml:space="preserve"
   inkscape:version="1.3 (0e150ed6c4, 2023-07-21)"
   xmlns:inkscape="http://www.inkscape.org/namespaces/inkscape"
   xmlns:sodipodi="http://sodipodi.sourceforge.net/DTD/sodipodi-0.dtd"
   xmlns="http://www.w3.org/2000/svg"
   xmlns:svg="http://www.w3.org/2000/svg"><sodipodi:namedview
     id="namedview1"
     pagecolor="#ffffff"
     bordercolor="#000000"
     borderopacity="0.25"
     inkscape:showpageshadow="2"
     inkscape:pageopacity="0.0"
     inkscape:pagecheckerboard="0"
     inkscape:deskcolor="#d1d1d1"
     showgrid="false"
     inkscape:zoom="3.175"
     inkscape:cx="0.31496063"
     inkscape:cy="-25.03937"
     inkscape:window-width="1920"
     inkscape:window-height="1017"
     inkscape:window-x="-8"
     inkscape:window-y="-8"
     inkscape:window-maximized="1"
     inkscape:current-layer="g1" /><defs
     id="defs1"><inkscape:path-effect
       effect="spiro"
       id="path-effect1"
       is_visible="true"
       lpeversion="1" /></defs><g
     inkscape:groupmode="layer"
     inkscape:label="Image"
     id="g1"><path
       style="fill:#f4a13b;stroke-width:0.101397"
       d="m 14.433071,48.69366 v -0.819846 h 2.6887 2.6887 l 0.12039,-0.122977 0.120389,-0.122979 v -1.265165 -1.265171 l 0.246253,-0.251547 0.246251,-0.251541 h 1.200251 c 0.660137,0 1.271662,-0.02802 1.358942,-0.0622 l 0.158694,-0.0622 V 32.288452 20.106858 l -0.294613,-0.155626 c -0.43582,-0.230211 -0.453445,-0.292558 -0.507986,-1.796768 l -0.05017,-1.383487 -0.587391,-0.05335 -0.58739,-0.05333 -0.172137,-0.217142 -0.172136,-0.21715 -0.676415,-3.47006 C 19.841381,10.851412 19.492951,9.1169494 19.439119,8.9055836 L 19.341237,8.5212829 H 18.7386 18.135959 l -0.246251,-0.251547 -0.246252,-0.25154 V 6.0777567 4.1373243 l 0.191475,-0.2419376 0.191476,-0.2419374 1.488962,-0.051264 1.488962,-0.051264 0.363429,-1.4283312 0.363427,-1.42832418 0.224554,-0.18574066 0.224553,-0.18574066 h 3.489135 3.489134 l 0.224552,0.18574066 0.224554,0.18574066 0.363428,1.42832418 0.363428,1.4283312 1.488963,0.051264 1.488962,0.051264 0.191475,0.2419374 0.191476,0.2419376 v 1.9404324 1.9404392 l -0.246251,0.25154 -0.246252,0.251547 h -0.602641 -0.602641 l -0.09779,0.3843007 c -0.05378,0.2113658 -0.403212,1.9470944 -0.776518,3.8571694 -0.439976,2.251214 -0.738507,3.548272 -0.848647,3.68721 l -0.169909,0.214334 -0.58739,0.05333 -0.587391,0.05335 -0.05017,1.383488 c -0.05454,1.504431 -0.07212,1.56653 -0.508392,1.796983 l -0.29502,0.155839 0.02549,12.217963 0.02549,12.217963 1.388657,0.05126 1.388655,0.05126 0.191458,0.241938 0.191457,0.241938 v 1.249156 1.249156 l 0.120389,0.122978 0.120391,0.122979 h 2.688701 2.688701 v 0.819845 0.819844 H 25.669432 14.433071 Z m 15.128958,-0.942823 c 0.06622,-0.06766 0.120389,-0.38123 0.120389,-0.696867 0,-0.315645 -0.05417,-0.629234 -0.120389,-0.696867 l -0.12039,-0.122978 h -3.772207 -3.772208 l -0.120388,0.122978 c -0.06622,0.06766 -0.12039,0.381222 -0.12039,0.696867 0,0.315637 0.05417,0.629227 0.12039,0.696867 l 0.120388,0.122977 h 3.772208 3.772207 z M 26.421867,32.296761 V 20.050336 h -0.752435 -0.752435 l -0.02582,12.143944 c -0.0142,6.679172 -0.0036,12.203635 0.02364,12.276575 l 0.04945,0.132615 0.728805,-0.03016 0.728805,-0.03016 z m 0.802597,-14.757203 v -0.768602 h -1.555032 -1.555033 l -0.03025,0.655329 c -0.01664,0.360433 -0.0063,0.71904 0.02294,0.796904 l 0.05318,0.141575 1.532092,-0.02829 1.532093,-0.02829 z m 2.422196,-5.687673 c 0.338995,-1.747296 0.59592,-3.2114841 0.570946,-3.2537614 -0.05935,-0.1004731 -9.036777,-0.1004731 -9.097048,0 -0.04047,0.067453 1.0724,6.0196164 1.188214,6.3551844 l 0.04469,0.129488 3.338423,-0.02698 3.338423,-0.02698 z m -4.733095,2.282395 c -0.02788,-0.07422 -0.03852,-1.171514 -0.02364,-2.438435 l 0.02706,-2.3034946 h 0.752436 0.752435 v 2.4082916 2.408299 l -0.728806,0.03016 -0.728803,0.03016 z M 32.040048,6.0617341 V 5.2931254 h -6.370616 -6.370616 l -0.03025,0.6553295 c -0.01664,0.360433 -0.0066,0.7181816 0.02222,0.7949947 l 0.05246,0.1396583 6.348397,-0.026358 6.348395,-0.026358 z m -3.508241,-2.58764 c 0.02585,-0.070455 -0.03269,-0.4278511 -0.130066,-0.7942199 l -0.17705,-0.6661287 h -2.555259 -2.55526 l -0.17705,0.6661287 c -0.09738,0.3663688 -0.155908,0.7237646 -0.130065,0.7942199 l 0.04699,0.128105 h 2.815388 2.815387 z"
       id="path1" /></g></svg>
