<?xml version="1.0" encoding="UTF-8" standalone="no"?>
<!-- Created with Inkscape (http://www.inkscape.org/) -->

<svg
   version="1.1"
   id="svg1"
   width="50"
   height="50"
   viewBox="0 0 50 50"
   sodipodi:docname="deng1.svg"
   inkscape:version="1.3 (0e150ed6c4, 2023-07-21)"
   xmlns:inkscape="http://www.inkscape.org/namespaces/inkscape"
   xmlns:sodipodi="http://sodipodi.sourceforge.net/DTD/sodipodi-0.dtd"
   xmlns="http://www.w3.org/2000/svg"
   xmlns:svg="http://www.w3.org/2000/svg">
  <sodipodi:namedview
     id="namedview1"
     pagecolor="#ffffff"
     bordercolor="#000000"
     borderopacity="0.25"
     inkscape:showpageshadow="2"
     inkscape:pageopacity="0.0"
     inkscape:pagecheckerboard="0"
     inkscape:deskcolor="#d1d1d1"
     showgrid="false"
     inkscape:zoom="8.9802561"
     inkscape:cx="49.664508"
     inkscape:cy="28.228594"
     inkscape:window-width="1920"
     inkscape:window-height="1017"
     inkscape:window-x="-8"
     inkscape:window-y="-8"
     inkscape:window-maximized="1"
     inkscape:current-layer="g1" />
  <defs
     id="defs1">
    <inkscape:path-effect
       effect="spiro"
       id="path-effect1"
       is_visible="true"
       lpeversion="1" />
  </defs>
  <g
     inkscape:groupmode="layer"
     inkscape:label="Image"
     id="g1">
    <path
       style="fill:#999999;stroke-width:0.101922"
       d="m 13.000013,49.051059 v -0.815378 h 2.853822 2.853821 v -1.380579 c 0,-1.329909 0.0092,-1.389765 0.250173,-1.630757 0.24099,-0.240988 0.300848,-0.250174 1.630755,-0.250174 h 1.380582 V 32.743509 c 0,-10.963631 -0.01632,-12.230661 -0.157516,-12.230661 -0.08663,0 -0.270094,-0.11258 -0.407689,-0.250174 -0.240989,-0.240992 -0.250173,-0.300847 -0.250173,-1.630757 v -1.380582 h -0.565204 c -0.947278,0 -0.902003,0.109732 -1.776722,-4.306213 L 18.049729,9.0975614 h -0.643931 c -0.547782,0 -0.681284,-0.037355 -0.894102,-0.2501743 -0.248143,-0.248141 -0.250173,-0.2659558 -0.250173,-2.1959571 0,-1.9300013 0.002,-1.9478162 0.250173,-2.1959608 0.24252,-0.2425186 0.295202,-0.2501742 1.722219,-0.2501742 h 1.472047 l 0.341691,-1.4014291 c 0.239941,-0.984098 0.408607,-1.4697215 0.566398,-1.6307531 0.224575,-0.22919377 0.226768,-0.22932763 3.801247,-0.22932763 3.57448,0 3.576672,1.3386e-4 3.801247,0.22932763 0.157791,0.1610316 0.326458,0.6466551 0.566398,1.6307531 l 0.341691,1.4014291 h 1.472047 c 1.427018,0 1.479699,0.00767 1.722219,0.2501742 0.248144,0.2481446 0.250173,0.2659595 0.250173,2.1959608 0,1.9300013 -0.002,1.9478161 -0.250173,2.1959571 -0.212817,0.2128189 -0.346319,0.2501743 -0.894102,0.2501743 h -0.64393 l -0.762134,3.8475606 c -0.874718,4.415945 -0.829443,4.306213 -1.776721,4.306213 h -0.565205 v 1.380582 c 0,1.32991 -0.0092,1.389765 -0.250173,1.630757 -0.137595,0.137594 -0.321055,0.250174 -0.407689,0.250174 -0.141198,0 -0.157515,1.26703 -0.157515,12.230661 v 12.230662 h 1.380582 c 1.329907,0 1.389765,0.0092 1.630755,0.250174 0.24099,0.240992 0.250173,0.300848 0.250173,1.630757 v 1.380579 h 2.853821 2.853821 v 0.815378 0.815379 H 24.415298 13.000013 Z m 15.492173,-1.630753 v -0.815378 h -4.076888 -4.076887 v 0.815378 0.815375 h 4.076887 4.076888 z M 25.230676,32.743509 V 20.512848 h -0.815378 -0.815377 v 12.230661 12.230662 h 0.815377 0.815378 z m 0.815377,-14.676796 v -0.815378 h -1.630755 -1.630755 v 0.815378 0.815379 h 1.630755 1.630755 z m 2.39083,-5.478318 c 0.331544,-1.667699 0.62256,-3.1353804 0.646703,-3.2615095 l 0.0439,-0.2293241 h -4.712188 -4.712184 l 0.0439,0.2293241 c 0.02414,0.1261291 0.31516,1.5938105 0.646704,3.2615095 l 0.602807,3.032187 h 3.418777 3.418778 z M 23.599921,12.359071 V 9.9129398 h 0.815377 0.815378 v 2.4461312 2.446132 H 24.415298 23.599921 Z M 30.938318,6.65143 V 5.8360516 h -6.52302 -6.52302 V 6.65143 7.4668047 h 6.52302 6.52302 z M 27.24483,3.3899202 27.040061,2.5745419 h -2.624763 -2.624762 l -0.20477,0.8153783 -0.204769,0.8153748 h 3.034301 3.034301 z"
       id="path1" />
  </g>
</svg>
