<?xml version="1.0" standalone="no"?><!DOCTYPE svg PUBLIC "-//W3C//DTD SVG 1.1//EN" "http://www.w3.org/Graphics/SVG/1.1/DTD/svg11.dtd"><svg class="icon" width="48px" height="47.95px" viewBox="0 0 1025 1024" version="1.1" xmlns="http://www.w3.org/2000/svg"><path d="M882.854 512.11c-1.22 104.482-38.2 194.33-113.418 266.858-76.628 73.886-169.58 108.278-275.842 103.359-97.503-4.513-181.16-42.637-248.714-112.99C171.037 692.434 136.615 599.39 141.703 493c4.662-97.48 42.948-181.095 113.414-248.532 76.908-73.6 169.84-107.1 276.114-102.907 37.15 1.465 73.304 9.07 108.255 21.902 53.685 19.71 100.408 50.276 140.07 91.385 28.883 29.938 52.232 63.88 69.504 101.77 22.481 49.313 34.113 101.068 33.794 155.492zM537.81 194.94c-87.174-0.23-143.717 16.349-195.444 48.998-45.963 29.01-82.113 67.607-108.413 115.143-23.44 42.369-36.786 87.924-38.815 136.324-3.92 93.475 26.736 174.474 92.515 240.78 56.86 57.32 126.775 88.683 207.628 92.582 93.439 4.506 174.49-26.558 240.802-92.335 57.535-57.07 88.928-127.227 92.677-208.423 4.308-93.315-26.76-174.268-92.596-240.276-61.422-61.585-136.895-92.197-198.354-92.792z m24.073 293.873c1.55-1.04 3.313-1.864 4.619-3.151a43518.932 43518.932 0 0 0 76.114-75.26c1.979-1.96 3.905-4 5.651-6.166 11.044-13.724 7.04-34.728-8.24-43.502-12.64-7.255-26.268-5.087-37.67 6.151a36342.016 36342.016 0 0 0-77.773 76.889c-1.188 1.179-1.837 2.9-2.737 4.37l-2.42 0.096c-0.875-1.49-1.486-3.238-2.658-4.433-25.13-25.547-50.317-51.037-75.516-76.514-1.96-1.982-3.983-3.929-6.162-5.66-13.888-11.03-35.175-6.778-43.83 8.7-6.966 12.459-4.729 26.17 6.274 37.317a39223.677 39223.677 0 0 0 76.95 77.714c1.19 1.198 2.807 1.971 4.225 2.94l0.351 2.18c-1.493 0.87-3.246 1.478-4.44 2.652-25.654 25.241-51.252 50.54-76.836 75.853-1.981 1.959-3.922 3.99-5.633 6.183-10.889 13.955-6.373 35.3 9.19 43.726 12.475 6.754 25.932 4.529 36.932-6.326 26.06-25.714 52.053-51.495 78.079-77.24 1.175-1.163 2.416-2.26 4.57-4.269 1.29 1.794 2.196 3.482 3.487 4.792 25.057 25.4 50.154 50.762 75.263 76.11 1.853 1.872 3.776 3.688 5.813 5.353 13.835 11.311 34.979 7.377 43.841-8.12 7.13-12.468 5-26.116-6.018-37.304a32345.836 32345.836 0 0 0-77.207-78.116c-1.172-1.182-2.916-1.794-4.393-2.671 0.057-0.768 0.116-1.532 0.174-2.294z" fill="#FC2307" /></svg>