<?xml version="1.0" encoding="UTF-8" standalone="no"?>
<!-- Created with Inkscape (http://www.inkscape.org/) -->

<svg
   version="1.1"
   id="svg1"
   width="50"
   height="50"
   viewBox="0 0 50 50"
   sodipodi:docname="deng2.svg"
   xml:space="preserve"
   inkscape:version="1.3 (0e150ed6c4, 2023-07-21)"
   xmlns:inkscape="http://www.inkscape.org/namespaces/inkscape"
   xmlns:sodipodi="http://sodipodi.sourceforge.net/DTD/sodipodi-0.dtd"
   xmlns="http://www.w3.org/2000/svg"
   xmlns:svg="http://www.w3.org/2000/svg"><sodipodi:namedview
     id="namedview1"
     pagecolor="#ffffff"
     bordercolor="#000000"
     borderopacity="0.25"
     inkscape:showpageshadow="2"
     inkscape:pageopacity="0.0"
     inkscape:pagecheckerboard="0"
     inkscape:deskcolor="#d1d1d1"
     showgrid="false"
     inkscape:zoom="6.35"
     inkscape:cx="54.645669"
     inkscape:cy="58.031496"
     inkscape:window-width="1920"
     inkscape:window-height="1017"
     inkscape:window-x="-8"
     inkscape:window-y="-8"
     inkscape:window-maximized="1"
     inkscape:current-layer="g1" /><defs
     id="defs1"><inkscape:path-effect
       effect="spiro"
       id="path-effect1"
       is_visible="true"
       lpeversion="1" /></defs><g
     inkscape:groupmode="layer"
     inkscape:label="Image"
     id="g1"><path
       style="fill:#008000;stroke-width:0.103346"
       d="M 13.354323,49.094492 V 48.26772 h 2.893702 2.8937 V 46.867846 45.46797 l 0.253669,-0.253667 0.253668,-0.25367 h 1.399876 1.399874 V 32.559057 20.157482 h -0.159717 c -0.08784,0 -0.273868,-0.11415 -0.413386,-0.253669 l -0.253668,-0.253669 v -1.399875 -1.399875 h -0.573103 -0.573104 l -0.227833,-0.232529 -0.227831,-0.23253 -0.772783,-3.90133 -0.772782,-3.9013281 h -0.65293 -0.652928 L 16.915078,8.3290079 16.661409,8.0753396 V 6.1023614 4.1293836 l 0.253669,-0.2536689 0.253669,-0.2536683 h 1.492617 1.492617 l 0.346468,-1.421014 c 0.243292,-0.9978502 0.414316,-1.49025882 0.574312,-1.6535435 l 0.227844,-0.23252941 h 3.626523 3.626521 l 0.227844,0.23252941 c 0.159996,0.16328468 0.331021,0.6556933 0.574313,1.6535435 l 0.346467,1.421014 h 1.492616 1.492618 l 0.253669,0.2536683 0.253668,0.2536689 v 1.9729778 1.9729782 l -0.253668,0.2536683 -0.253669,0.253669 H 32.036578 31.38365 l -0.772783,3.9013281 -0.772783,3.90133 -0.227832,0.23253 -0.227832,0.232529 h -0.573103 -0.573104 v 1.399875 1.399875 l -0.253667,0.253669 c -0.139519,0.139519 -0.325541,0.253669 -0.413386,0.253669 h -0.159717 v 12.401575 12.401576 h 1.399874 1.399876 l 0.253668,0.25367 0.253668,0.253667 v 1.399876 1.399874 h 2.893701 2.893701 v 0.826772 0.826771 H 24.929128 13.354323 Z m 15.708664,-1.653543 v -0.826772 h -4.133859 -4.13386 v 0.826772 0.826771 h 4.13386 4.133859 z M 25.755898,32.559057 V 20.157482 h -0.82677 -0.826773 v 12.401575 12.401576 h 0.826773 0.82677 z m 0.826773,-14.88189 v -0.826773 h -1.653543 -1.653544 v 0.826773 0.826771 h 1.653544 1.653543 z m 2.443193,-5.73573 c 0.355722,-1.762057 0.649115,-3.23862 0.651984,-3.2812508 0.0028,-0.042629 -2.139096,-0.077509 -4.759924,-0.077509 h -4.765141 l 0.05587,0.2325294 c 0.03073,0.1278914 0.31765,1.5579474 0.637611,3.1779024 0.319958,1.619957 0.60093,3.004136 0.624381,3.075954 l 0.04264,0.130581 3.432908,-0.02722 3.432908,-0.02723 z m -4.923509,-0.05167 V 9.4094504 h 0.826773 0.82677 v 2.4803156 2.480315 h -0.82677 -0.826773 z M 31.543301,6.1023614 V 5.27559 h -6.614173 -6.614175 v 0.8267714 0.826772 h 6.614175 6.614173 z m -3.615802,-2.557825 c 6.9e-4,-0.042629 -0.07753,-0.4146775 -0.173915,-0.8267713 L 27.578342,1.968503 h -2.649214 -2.649217 l -0.17524,0.7492621 c -0.09638,0.4120938 -0.174645,0.7841406 -0.173915,0.8267713 6.9e-4,0.042629 1.349995,0.07751 2.998372,0.07751 1.648376,0 2.997642,-0.034878 2.998371,-0.07751 z"
       id="path3"
       inkscape:highlight-color="#813deb" /></g></svg>
